# xmcd
#
# Track frame offsets: 
#        150
#        15647
#        39425
#        62027
#        80710
#        93682
#        114572
#        137067
#        151045
#        183007
#
# Disc length: 2713 seconds
#
# Revision: 3
# Processed by: cddbd v1.5.2PL0 Copyright (c) Steve Scherf et al.
# Submitted via: ExactAudioCopyFreeDBPlugin 1.0
#
DISCID=780a970a
DTITLE=Various Artist - A Celebration Of Blues: Great Blues Piano
DYEAR=1996
DGENRE=Blues
TTITLE0=Katie Webster - 2 Fisted Mama
TTITLE1=Dr. John - Boxcar Boogie
TTITLE2=Champion Jack Dupree - Give Me Flowers While I'm Living
TTITLE3=Professor Longhair - Mess Around
TTITLE4=Charles Brown - Travelin' Blues
TTITLE5=Tuts Washington - Yancey Special
TTITLE6=Booker T. Laury - Early In The Morning
TTITLE7=Gene Taylor - Gene's Boogie
TTITLE8=James Booker - St. James Infirmary
TTITLE9=Pinetop Perkins - Got My Mojo Working
EXTD=
EXTT0=Katie Webster
EXTT1=Dr. John
EXTT2=Champion Jack Dupree
EXTT3=Professor Longhair
EXTT4=Charles Brown
EXTT5=Tuts Washington
EXTT6=Booker T. Laury
EXTT7=Gene Taylor
EXTT8=James Booker
EXTT9=Pinetop Perkins
PLAYORDER=
